<svg xmlns="http://www.w3.org/2000/svg" xmlns:xlink="http://www.w3.org/1999/xlink" width="831" height="234" x="0" y="0" version="1.1" viewBox="0 0 831 234" xml:space="preserve" style="enable-background:new 0 0 831 234"><style type="text/css">.st0{fill:#262626;stroke:#000;stroke-miterlimit:10}.st1{fill:#fff}.st2{font-family:&apos;Poppins-Bold&apos;}.st3{font-size:87.513px}.st4,.st5{fill:none;stroke:red;stroke-width:2.4309;stroke-miterlimit:12.1546}.st5{stroke:#00f}.st6{fill:#828282}.st7{font-family:&apos;VarelaRound-Regular&apos;}.st8{font-size:25.5246px}</style><g id="Fundo"><rect width="831" height="234" class="st0"/></g><g id="Camada_1"><g id="Camada_2_1_"><g id="Camada_1-2"><text class="st1 st2 st3" transform="matrix(1 0 0 1 201.6152 145.0771)">GoBarber</text><line x1="81.2" x2="749.8" y1="187.8" y2="187.8" class="st4"/><line x1="81.2" x2="749.8" y1="45.6" y2="45.6" class="st5"/><g><text class="st6 st7 st8" transform="matrix(1 0 0 1 356.0396 21.6719)">A</text><text class="st6 st7 st8" transform="matrix(1 0 0 1 370.7695 21.6719)">w</text><text class="st6 st7 st8" transform="matrix(1 0 0 1 389.0879 21.6719)">esome</text></g><g><text class="st6 st7 st8" transform="matrix(1 0 0 1 306.6431 226.6953)">Hai</text><text class="st6 st7 st8" transform="matrix(1 0 0 1 346.6196 226.6953)">r</text><text class="st6 st7 st8" transform="matrix(1 0 0 1 356.0029 226.6953)">cuts &amp;</text><text class="st6 st7 st8" transform="matrix(1 0 0 1 439.1162 226.6953)">S</text><text class="st6 st7 st8" transform="matrix(1 0 0 1 454.6377 226.6953)">h</text><text class="st6 st7 st8" transform="matrix(1 0 0 1 470.1831 226.6953)">a</text><text class="st6 st7 st8" transform="matrix(1 0 0 1 484.2944 226.6953)">v</text><text class="st6 st7 st8" transform="matrix(1 0 0 1 497.6401 226.6953)">es</text></g><circle cx="673.3" cy="116.7" r="6.1" class="st6"/><circle cx="150.6" cy="116.7" r="6.1" class="st6"/></g></g></g></svg>